<svg width="24" height="24" viewBox="0 0 24 24" fill="none" xmlns="http://www.w3.org/2000/svg">
<path d="M8.81839 16.3425C8.82451 16.7633 9.15512 17.1035 9.56532 17.1087H19.0224C19.2156 17.1014 19.3985 17.0175 19.5327 16.8747C19.6668 16.7319 19.7418 16.5413 19.7418 16.343C19.7418 16.1447 19.6668 15.9541 19.5327 15.8113C19.3985 15.6685 19.2156 15.5847 19.0224 15.5773H18.2755C18.2096 15.5771 18.1466 15.55 18.1001 15.5022C18.0536 15.4543 18.0275 15.3895 18.0275 15.3219V10.7267C18.0275 10.4557 17.9226 10.1959 17.7358 10.0043C17.5491 9.8127 17.2958 9.70506 17.0316 9.70506H16.0357C15.905 9.70506 15.7755 9.73149 15.6547 9.78285C15.534 9.8342 15.4243 9.90947 15.3319 10.0044C15.2395 10.0992 15.1662 10.2119 15.1163 10.3358C15.0663 10.4598 15.0407 10.5926 15.0408 10.7267V15.3219C15.0408 15.4632 14.9286 15.5773 14.7918 15.5773H13.7959C13.7299 15.5773 13.6666 15.5504 13.6199 15.5025C13.5732 15.4546 13.5469 15.3897 13.5469 15.3219V13.7905C13.5469 13.5198 13.4422 13.2601 13.2556 13.0685C13.0691 12.8769 12.816 12.7692 12.5521 12.7689H11.5561C11.2922 12.7692 11.0391 12.8769 10.8526 13.0685C10.666 13.2601 10.5612 13.5198 10.5612 13.7905V15.3219C10.5612 15.4632 10.449 15.5773 10.3123 15.5773H9.56532C9.36806 15.5795 9.17945 15.6608 9.03986 15.8038C8.90027 15.9468 8.82077 16.1402 8.81839 16.3425ZM10.0633 10.9821C10.0817 10.5827 9.99977 10.1851 9.82538 9.82754C9.65099 9.46994 9.38998 9.16429 9.06736 8.93989L7.20614 7.71414C7.16625 7.68526 7.13367 7.647 7.11113 7.60257C7.08859 7.55814 7.07673 7.50882 7.07655 7.45873C7.0791 7.37822 7.11142 7.30172 7.16695 7.24476C7.22247 7.1878 7.29705 7.15465 7.37553 7.15203H9.06736C9.33132 7.15203 9.58448 7.04454 9.77122 6.85318C9.95796 6.66181 10.063 6.40222 10.0633 6.13145C10.0671 5.88959 9.98722 5.65417 9.83773 5.46709C9.68825 5.28001 9.4789 5.15341 9.24696 5.10982C9.19793 5.09956 9.15293 5.07475 9.11755 5.03845C9.08217 5.00216 9.05797 4.956 9.04798 4.9057C9.00549 4.66777 8.88207 4.45302 8.6997 4.29968C8.51733 4.14633 8.28783 4.06434 8.05206 4.0683C7.81243 4.07125 7.58188 4.16274 7.4027 4.32597C7.22352 4.48921 7.10772 4.71325 7.07655 4.957C7.07298 5.00926 7.05245 5.05878 7.01823 5.09768C6.98402 5.13657 6.93809 5.16259 6.88778 5.17158C5.16635 5.52119 4.46125 7.65343 5.61941 9.00688C5.75547 9.16598 5.90955 9.30346 6.08166 9.4193L7.91328 10.6649C8.02043 10.7309 8.08267 10.8533 8.07247 10.9821C8.06966 11.0624 8.03723 11.1387 7.98173 11.1954C7.92623 11.2521 7.8518 11.2851 7.77349 11.2877H6.08166C5.81752 11.2877 5.56421 11.3954 5.37744 11.587C5.19067 11.7786 5.08574 12.0384 5.08574 12.3094C5.07758 12.8087 5.42247 13.241 5.90207 13.331C6.00207 13.3519 6.07962 13.4325 6.10104 13.5351C6.1443 13.7727 6.26792 13.987 6.45012 14.1402C6.63232 14.2934 6.8614 14.3756 7.09696 14.3725C7.33855 14.3747 7.57266 14.2867 7.75569 14.1249C7.93873 13.9632 8.0582 13.7387 8.09186 13.4933C8.0967 13.4414 8.11783 13.3925 8.15205 13.354C8.18627 13.3155 8.23175 13.2894 8.28165 13.2797C8.79066 13.1648 9.24561 12.8737 9.57005 12.4553C9.89449 12.0369 10.0687 11.5167 10.0633 10.9821Z" fill="#F9F3F0"/>
<path d="M24 1.53616C24 0.690388 23.3316 0.00371923 22.5071 0.00371923H1.60107C1.20501 -0.0245976 0.814198 0.109644 0.514618 0.376912C0.215039 0.64418 0.0312297 1.02258 0.00362562 1.42887C-0.0239785 1.83516 0.106884 2.23606 0.367425 2.54338C0.627966 2.85069 0.996843 3.03925 1.39291 3.06756C1.45111 3.07874 1.50371 3.11033 1.54169 3.15693C1.57967 3.20353 1.60066 3.26223 1.60107 3.32297V18.1303C1.60225 18.19 1.583 18.2483 1.54664 18.295C1.51029 18.3416 1.45914 18.3737 1.40209 18.3857C1.14155 18.417 0.903407 18.552 0.739001 18.7617C0.574595 18.9714 0.49709 19.2389 0.523192 19.5067C0.549293 19.7744 0.676912 20.0209 0.878539 20.1931C1.08017 20.3652 1.33965 20.4492 1.60107 20.4269H11.0592C11.1959 20.4269 11.3072 20.542 11.3072 20.6833V20.9995C11.3081 21.0418 11.2985 21.0836 11.2794 21.1211C11.2603 21.1587 11.2323 21.1906 11.198 21.2141C10.9379 21.4008 10.7426 21.6678 10.6405 21.9762C10.5384 22.2846 10.5349 22.6184 10.6303 22.929C10.7258 23.2396 10.9153 23.511 11.1713 23.7036C11.4274 23.8962 11.7366 24 12.0541 24C12.3716 24 12.6808 23.8962 12.9369 23.7036C13.1929 23.511 13.3824 23.2396 13.4779 22.929C13.5733 22.6184 13.5698 22.2846 13.4677 21.9762C13.3656 21.6678 13.1703 21.4008 12.9102 21.2141C12.8759 21.1906 12.8479 21.1587 12.8288 21.1211C12.8097 21.0836 12.8002 21.0418 12.801 20.9995V20.6833C12.801 20.542 12.9123 20.4279 13.05 20.4279H22.5071C22.7711 20.455 23.0348 20.3734 23.2401 20.201C23.4455 20.0287 23.5757 19.7797 23.602 19.5089C23.6284 19.2381 23.5489 18.9676 23.3808 18.757C23.2128 18.5463 22.9701 18.4128 22.7061 18.3857C22.6491 18.3737 22.5979 18.3416 22.5616 18.295C22.5252 18.2483 22.506 18.19 22.5071 18.1303V3.30203C22.5086 3.24155 22.5301 3.18338 22.5681 3.13713C22.6062 3.09088 22.6585 3.05933 22.7163 3.04767C23.0719 2.99671 23.3976 2.81572 23.6335 2.53799C23.8694 2.26027 23.9995 1.9045 24 1.53616ZM20.5163 18.1303C20.5163 18.2706 20.4041 18.3857 20.2674 18.3857H3.84188C3.77585 18.3857 3.71252 18.3588 3.66583 18.3109C3.61913 18.263 3.5929 18.1981 3.5929 18.1303V3.32297C3.5929 3.18166 3.70413 3.06756 3.84188 3.06756H20.2674C20.4041 3.06756 20.5163 3.1827 20.5163 3.32297V18.1303Z" fill="#F9F3F0"/>
</svg>
